<?xml version="1.0" encoding="UTF-8"?>
<svg xmlns="http://www.w3.org/2000/svg" viewBox="0 0 605.55 253.8">
  <defs>
    <style>
      .cls-1 {
        font-family: AkzidenzGroteskPro-Regular, 'Akzidenz-Grotesk Pro';
        font-size: 4.77px;
      }

      .cls-1, .cls-2, .cls-3 {
        fill: #2454ff;
      }

      .cls-4 {
        stroke-width: .39px;
      }

      .cls-4, .cls-5, .cls-6, .cls-7, .cls-8 {
        mix-blend-mode: multiply;
      }

      .cls-4, .cls-5, .cls-9, .cls-10, .cls-11, .cls-12, .cls-7 {
        stroke-miterlimit: 10;
      }

      .cls-4, .cls-5, .cls-10 {
        stroke: #2454ff;
      }

      .cls-4, .cls-5, .cls-8, .cls-13 {
        fill: #cff;
      }

      .cls-14 {
        fill: #9cf;
      }

      .cls-14, .cls-2, .cls-3, .cls-8, .cls-15, .cls-13 {
        stroke-width: 0px;
      }

      .cls-5, .cls-11, .cls-7 {
        stroke-width: .4px;
      }

      .cls-2, .cls-16 {
        opacity: .2;
      }

      .cls-9 {
        stroke-width: .48px;
      }

      .cls-9, .cls-10, .cls-11, .cls-12, .cls-7 {
        fill: none;
      }

      .cls-9, .cls-11, .cls-12, .cls-7 {
        stroke: #2454ff;
      }

      .cls-10, .cls-12 {
        stroke-width: .4px;
      }

      .cls-17 {
        isolation: isolate;
      }

      .cls-15 {
        fill: #2454ff;
      }
    </style>
  </defs>
  <g class="cls-17">
    <g id="Layer_1" data-name="Layer 1">
      <rect id="window-right" class="cls-13" x="601.08" y="7.61" width="4.05" height="75.26"/>
      <rect id="window-left" class="cls-13" x=".27" y="8.01" width="4.05" height="62.56"/>
      <rect id="window-7" class="cls-13" x="452.62" y="-4.47" width="4.26" height="13.51" transform="translate(457.04 -452.47) rotate(90)"/>
      <rect id="window-6" class="cls-13" x="391.65" y="-4.47" width="4.26" height="13.51" transform="translate(396.07 -391.5) rotate(90)"/>
      <rect id="window-5" class="cls-13" x="331.48" y="-4.47" width="4.26" height="13.51" transform="translate(335.9 -331.33) rotate(90)"/>
      <rect id="window-4" class="cls-13" x="270.91" y="-4.47" width="4.26" height="13.51" transform="translate(275.32 -270.75) rotate(90)"/>
      <rect id="window-3" class="cls-13" x="210.65" y="-4.47" width="4.26" height="13.51" transform="translate(215.07 -210.5) rotate(90)"/>
      <rect id="window-2" class="cls-13" x="150.2" y="-4.47" width="4.26" height="13.51" transform="translate(154.61 -150.04) rotate(90)"/>
      <rect id="window-1" class="cls-13" x="69.54" y="-4.47" width="4.26" height="13.51" transform="translate(73.96 -69.39) rotate(90)"/>
      <rect id="printing" class="cls-4" x="73.92" y="76.16" width="54.86" height="71.65"/>
      <g id="printing-area-detail" class="cls-6">
        <rect class="cls-13" x="75.21" y="76.16" width="24.47" height="7.8"/>
        <rect class="cls-13" x="101.4" y="76.22" width="24.61" height="10.58"/>
        <rect class="cls-13" x="73.95" y="105.41" width="8.41" height="38.15"/>
        <rect class="cls-13" x="89.13" y="105.47" width="38.73" height="31.73"/>
        <rect class="cls-8" x="115" y="78.11" width="9.87" height="1.32" transform="translate(14.49 -18.55) rotate(9.41)"/>
        <rect class="cls-8" x="103.99" y="77.51" width="8.76" height="5.38"/>
      </g>
      <rect id="sofa" class="cls-5" x="276.09" y="87.86" width="31.2" height="72.64"/>
      <g id="sofa-area-detail" class="cls-6">
        <rect class="cls-13" x="277.16" y="107.78" width="23.37" height="10.9"/>
        <rect class="cls-13" x="301.77" y="102.46" width="5.35" height="18.25"/>
        <rect class="cls-13" x="301.77" y="124.69" width="5.35" height="18.25"/>
        <rect class="cls-13" x="290.85" y="130.68" width="5.35" height="27.16" transform="translate(149.26 437.79) rotate(-90)"/>
        <rect class="cls-13" x="277.16" y="129.37" width="23.37" height="10.9"/>
        <rect class="cls-13" x="281.56" y="120.62" width="14.57" height="6.79"/>
        <circle class="cls-8" cx="300.36" cy="95.5" r="6.19"/>
        <circle class="cls-8" cx="301.2" cy="153.9" r="6.19"/>
      </g>
      <rect class="cls-5" x="179.34" y="114.03" width="61.41" height="19.92"/>
      <g id="shared-seats">
        <circle class="cls-2" cx="183.32" cy="111.1" r="1.38"/>
        <circle class="cls-2" cx="189.43" cy="111.1" r="1.38"/>
        <circle class="cls-2" cx="195.54" cy="111.1" r="1.38"/>
        <g class="cls-16">
          <circle class="cls-3" cx="175.59" cy="128.38" r="1.38"/>
          <circle class="cls-3" cx="175.59" cy="122.27" r="1.38"/>
          <circle class="cls-3" cx="175.59" cy="116.15" r="1.38"/>
        </g>
        <g class="cls-16">
          <circle class="cls-3" cx="244.92" cy="128.38" r="1.38"/>
          <circle class="cls-3" cx="244.92" cy="122.27" r="1.38"/>
          <circle class="cls-3" cx="244.92" cy="116.15" r="1.38"/>
        </g>
        <circle class="cls-2" cx="201.64" cy="111.1" r="1.38"/>
        <circle class="cls-2" cx="207.75" cy="111.1" r="1.38"/>
        <circle class="cls-2" cx="213.86" cy="111.1" r="1.38"/>
        <circle class="cls-2" cx="220.05" cy="111.1" r="1.38"/>
        <circle class="cls-2" cx="226.15" cy="111.1" r="1.38"/>
        <circle class="cls-2" cx="232.26" cy="111.1" r="1.38"/>
        <circle class="cls-2" cx="238.37" cy="111.1" r="1.38"/>
        <circle class="cls-2" cx="183.32" cy="137.29" r="1.38"/>
        <circle class="cls-2" cx="189.43" cy="137.29" r="1.38"/>
        <circle class="cls-2" cx="195.54" cy="137.29" r="1.38"/>
        <circle class="cls-2" cx="201.64" cy="137.29" r="1.38"/>
        <circle class="cls-2" cx="207.75" cy="137.29" r="1.38"/>
        <circle class="cls-2" cx="213.86" cy="137.29" r="1.38"/>
        <circle class="cls-2" cx="220.05" cy="137.29" r="1.38"/>
        <circle class="cls-2" cx="226.15" cy="137.29" r="1.38"/>
        <circle class="cls-2" cx="232.26" cy="137.29" r="1.38"/>
        <circle class="cls-2" cx="238.37" cy="137.29" r="1.38"/>
      </g>
      <path id="outer-frame" class="cls-11" d="M104.61,175.85h13.9c0,7.72-6,13.57-13.9,13.59v30.11h-41.17v-43.65H.2V.31l94.57-.11v16.91h27V.23h483.58v89.84h-231.6v124.28h-60.69v39.24h-75.2s.04-63.77,0-63.77c-7.92,0-14.06-6.02-14.06-13.94h14.06v-.03H102.59v-1.67h135.31l-.04,1.71"/>
      <polyline class="cls-11" points="104.61 189.45 102.59 189.45 102.59 217.58 65.33 217.58 65.33 175.7 73.92 175.7 73.92 173.8 72.47 173.8"/>
      <polyline class="cls-10" points="72.47 91.33 73.76 91.36 73.73 76.09 126.19 76.1 126.19 74.55 110.69 74.55 110.69 21.64 126.49 21.64 126.49 4.53 600.96 4.53 600.96 85.4 369.14 85.4 369.52 210.26 241.39 210.26 241.39 189.83 237.85 189.83"/>
      <polyline class="cls-11" points="72.47 107.89 73.79 107.88 73.89 160.04 72.38 160.04"/>
      <rect id="elevators" class="cls-11" x="241.39" y="214.36" width="68.16" height="35.93"/>
      <rect id="flat-file" class="cls-5" x="177.75" y="77.84" width="73.3" height="11.12"/>
      <rect id="shared-table" class="cls-9" x="179.39" y="114.18" width="61.44" height="19.8"/>
      <g id="columns">
        <rect class="cls-15" x="58.36" y="69.71" width="6.36" height="4.89"/>
        <rect class="cls-15" x="119.05" y="69.71" width="6.36" height="4.65"/>
        <rect class="cls-15" x="179.74" y="71.7" width="6.36" height="6.09"/>
        <rect class="cls-15" x="240.43" y="71.7" width="6.36" height="6.09"/>
        <rect class="cls-15" x="301.06" y="71.7" width="6.36" height="6.09"/>
        <rect class="cls-15" x="362.6" y="71.7" width="6.36" height="6.09"/>
        <rect class="cls-15" x="119.05" y="141.92" width="6.36" height="6.09"/>
        <rect class="cls-15" x="179.74" y="141.92" width="6.36" height="6.09"/>
        <rect class="cls-15" x="240.43" y="141.92" width="6.36" height="6.09"/>
        <rect class="cls-15" x="300.72" y="141.92" width="6.36" height="6.09"/>
        <rect class="cls-15" x="362.99" y="141.92" width="6.36" height="6.09"/>
        <rect class="cls-15" x="422.49" y="71.7" width="6.36" height="6.09"/>
        <rect class="cls-15" x="483.18" y="71.7" width="6.36" height="6.09"/>
        <rect class="cls-15" x="543.86" y="71.7" width="6.36" height="6.09"/>
        <rect class="cls-15" x="58.36" y="141.92" width="6.36" height="6.09"/>
      </g>
      <g id="kitchen-restroom-elevators">
        <g>
          <path class="cls-14" d="M153.28,198.91h-.71l-1.23-1.91h-1.16v1.91h-.59v-4.49h2.02c.45,0,.81.11,1.07.33s.39.55.39.98c0,.31-.08.58-.25.8-.16.22-.43.37-.81.43l1.26,1.95ZM150.18,196.49h1.32c.65,0,.98-.26.98-.77,0-.25-.08-.45-.24-.6-.16-.14-.38-.22-.66-.22h-1.41v1.58Z"/>
          <path class="cls-14" d="M157.31,198.91h-3.17v-4.49h3.09v.53h-2.52v1.39h2.19v.52h-2.19v1.53h2.6v.52Z"/>
          <path class="cls-14" d="M157.95,197.47l.64-.08s0,.08,0,.12c0,.04.02.1.03.18s.04.16.08.23c.03.07.08.14.15.23.07.08.14.15.23.21.09.06.2.1.34.14.14.04.29.06.46.06.11,0,.22-.01.34-.04s.23-.07.36-.13c.13-.06.23-.15.31-.28s.12-.28.12-.46c0-.23-.07-.4-.22-.5-.14-.11-.36-.19-.64-.24l-.41-.08c-.53-.11-.93-.26-1.19-.45-.26-.19-.39-.47-.39-.83s.14-.64.43-.88c.3-.25.69-.37,1.16-.37.53,0,.95.11,1.24.34.18.14.31.28.39.44.08.16.14.36.18.6l-.6.04c0-.06,0-.13-.02-.2-.01-.07-.05-.15-.1-.25-.05-.09-.11-.18-.19-.25-.08-.07-.19-.13-.34-.18-.15-.05-.32-.08-.51-.08-.16,0-.31.02-.46.06-.14.04-.27.11-.39.22-.12.11-.17.25-.17.43,0,.2.08.35.23.45.15.1.37.19.67.26l.82.2c.08.02.15.04.21.05s.15.05.28.12c.13.07.24.14.32.22.08.08.16.2.23.34.07.15.1.32.1.5,0,.37-.12.68-.38.92-.33.32-.8.48-1.42.48-.5,0-.91-.1-1.23-.31-.39-.25-.62-.67-.67-1.24Z"/>
          <path class="cls-14" d="M165.54,194.93h-1.34v3.97h-.6v-3.97h-1.35v-.52h3.29v.52Z"/>
          <path class="cls-14" d="M170.07,198.91h-.71l-1.23-1.91h-1.16v1.91h-.59v-4.49h2.02c.45,0,.81.11,1.07.33s.39.55.39.98c0,.31-.08.58-.25.8-.16.22-.43.37-.81.43l1.26,1.95ZM166.97,196.49h1.32c.65,0,.98-.26.98-.77,0-.25-.08-.45-.24-.6-.16-.14-.38-.22-.66-.22h-1.41v1.58Z"/>
          <path class="cls-14" d="M175.21,196.62c0,.23-.02.45-.07.67s-.13.43-.25.65c-.11.21-.26.4-.43.55-.17.16-.39.29-.65.38-.26.1-.56.15-.88.15-.3,0-.58-.05-.84-.15-.27-.1-.5-.24-.72-.43-.21-.19-.38-.44-.5-.75s-.18-.66-.18-1.05.06-.75.19-1.06c.13-.31.3-.56.51-.74.21-.18.45-.32.72-.42.26-.09.55-.14.84-.14.68,0,1.23.22,1.64.65.41.43.62.99.62,1.68ZM171.34,196.66c0,.58.15,1.04.44,1.38.29.34.69.51,1.19.51.47,0,.85-.16,1.15-.49.3-.33.45-.81.45-1.44,0-.24-.03-.46-.09-.67-.06-.21-.15-.4-.26-.58s-.29-.32-.5-.43c-.22-.11-.47-.16-.76-.16s-.53.05-.75.16c-.22.11-.39.25-.51.43-.12.18-.21.38-.27.6-.06.21-.09.44-.09.69Z"/>
          <path class="cls-14" d="M180.61,196.62c0,.23-.02.45-.07.67s-.13.43-.25.65c-.11.21-.26.4-.43.55-.17.16-.39.29-.65.38-.26.1-.56.15-.88.15-.3,0-.58-.05-.84-.15-.27-.1-.5-.24-.72-.43-.21-.19-.38-.44-.5-.75s-.18-.66-.18-1.05.06-.75.19-1.06c.13-.31.3-.56.51-.74.21-.18.45-.32.72-.42.26-.09.55-.14.84-.14.68,0,1.23.22,1.64.65.41.43.62.99.62,1.68ZM176.74,196.66c0,.58.15,1.04.44,1.38.29.34.69.51,1.19.51.47,0,.85-.16,1.15-.49.3-.33.45-.81.45-1.44,0-.24-.03-.46-.09-.67-.06-.21-.15-.4-.26-.58s-.29-.32-.5-.43c-.22-.11-.47-.16-.76-.16s-.53.05-.75.16c-.22.11-.39.25-.51.43-.12.18-.21.38-.27.6-.06.21-.09.44-.09.69Z"/>
          <path class="cls-14" d="M185.97,198.91h-.6l.08-3.77-1.42,3.77h-.46l-1.39-3.71c.04,2.38.06,3.62.06,3.71h-.59v-4.49h.78l1.37,3.68,1.39-3.68h.78v4.49Z"/>
        </g>
        <g>
          <path class="cls-14" d="M73.8,198.91h-.73l-1.58-2.21-.64.65v1.57h-.6v-4.49h.6v2.2l2.13-2.2h.74l-1.82,1.86,1.9,2.63Z"/>
          <path class="cls-14" d="M75.16,198.91h-.6v-4.49h.6v4.49Z"/>
          <path class="cls-14" d="M79.25,194.93h-1.34v3.97h-.6v-3.97h-1.35v-.52h3.29v.52Z"/>
          <path class="cls-14" d="M83.51,197.2l.65.08c-.04.2-.11.39-.22.58-.1.19-.24.38-.41.56-.17.18-.4.33-.67.44-.28.11-.58.17-.92.17-.67,0-1.2-.22-1.6-.65-.4-.43-.59-1-.59-1.71s.2-1.28.61-1.71.96-.65,1.66-.65c.53,0,.96.12,1.3.36s.59.58.74,1.02l-.6.12c-.09-.28-.26-.52-.5-.72-.24-.2-.56-.3-.95-.3-.5,0-.9.17-1.18.51-.28.34-.42.79-.42,1.35,0,.62.15,1.08.45,1.41.3.32.69.48,1.16.48.37,0,.7-.11.97-.33.28-.22.45-.55.52-.98Z"/>
          <path class="cls-14" d="M88.73,198.91h-.6v-2.06h-2.44v2.06h-.59v-4.49h.59v1.91h2.44v-1.91h.6v4.49Z"/>
          <path class="cls-14" d="M93.18,198.91h-3.17v-4.49h3.09v.53h-2.52v1.39h2.19v.52h-2.19v1.53h2.6v.52Z"/>
          <path class="cls-14" d="M97.58,198.91h-.54l-2.46-3.65c.04,2.38.06,3.59.06,3.65h-.57v-4.49h.57l2.43,3.6c-.02-2.31-.03-3.51-.03-3.6h.54v4.49Z"/>
        </g>
        <g>
          <path class="cls-14" d="M261.86,233.78h-3.17v-4.49h3.09v.53h-2.52v1.39h2.19v.52h-2.19v1.53h2.6v.52Z"/>
          <path class="cls-14" d="M265.5,233.78h-2.77v-4.49h.6v3.96h2.18v.53Z"/>
          <path class="cls-14" d="M269.52,233.78h-3.17v-4.49h3.09v.53h-2.52v1.39h2.19v.52h-2.19v1.53h2.6v.52Z"/>
          <path class="cls-14" d="M273.84,229.29l-1.58,4.49h-.59l-1.52-4.49h.64l1.19,3.75,1.23-3.75h.64Z"/>
          <path class="cls-14" d="M277.9,233.78h-.63l-.49-1.38h-1.71l-.5,1.38h-.64l1.71-4.49h.62l1.64,4.49ZM276.61,231.9l-.66-1.88-.69,1.88h1.34Z"/>
          <path class="cls-14" d="M281.19,229.81h-1.34v3.97h-.6v-3.97h-1.35v-.52h3.29v.52Z"/>
          <path class="cls-14" d="M286.23,231.5c0,.23-.02.45-.07.67s-.13.43-.25.65c-.11.21-.26.4-.43.55-.17.16-.39.29-.65.38-.26.1-.56.15-.88.15-.3,0-.58-.05-.84-.15-.27-.1-.5-.24-.72-.43-.21-.19-.38-.44-.5-.75s-.18-.66-.18-1.05.06-.75.19-1.06c.13-.31.3-.56.51-.74.21-.18.45-.32.72-.42.26-.09.55-.14.84-.14.68,0,1.23.22,1.64.65.41.43.62.99.62,1.68ZM282.35,231.53c0,.58.15,1.04.44,1.38.29.34.69.51,1.19.51.47,0,.85-.16,1.15-.49.3-.33.45-.81.45-1.44,0-.24-.03-.46-.09-.67-.06-.21-.15-.4-.26-.58s-.29-.32-.5-.43c-.22-.11-.47-.16-.76-.16s-.53.05-.75.16c-.22.11-.39.25-.51.43-.12.18-.21.38-.27.6-.06.21-.09.44-.09.69Z"/>
          <path class="cls-14" d="M290.99,233.78h-.71l-1.23-1.91h-1.16v1.91h-.59v-4.49h2.02c.45,0,.81.11,1.07.33s.39.55.39.98c0,.31-.08.58-.25.8-.16.22-.43.37-.81.43l1.26,1.95ZM287.89,231.37h1.32c.65,0,.98-.26.98-.77,0-.25-.08-.45-.24-.6-.16-.14-.38-.22-.66-.22h-1.41v1.58Z"/>
          <path class="cls-14" d="M291.53,232.34l.64-.08s0,.08,0,.12c0,.04.02.1.03.18s.04.16.08.23c.03.07.08.14.15.23.07.08.14.15.23.21.09.06.2.1.34.14.14.04.29.06.46.06.11,0,.22-.01.34-.04s.23-.07.36-.13c.13-.06.23-.15.31-.28s.12-.28.12-.46c0-.23-.07-.4-.22-.5-.14-.11-.36-.19-.64-.24l-.41-.08c-.53-.11-.93-.26-1.19-.45-.26-.19-.39-.47-.39-.83s.14-.64.43-.88c.3-.25.69-.37,1.16-.37.53,0,.95.11,1.24.34.18.14.31.28.39.44.08.16.14.36.18.6l-.6.04c0-.06,0-.13-.02-.2-.01-.07-.05-.15-.1-.25-.05-.09-.11-.18-.19-.25-.08-.07-.19-.13-.34-.18-.15-.05-.32-.08-.51-.08-.16,0-.31.02-.46.06-.14.04-.27.11-.39.22-.12.11-.17.25-.17.43,0,.2.08.35.23.45.15.1.37.19.67.26l.82.2c.08.02.15.04.21.05s.15.05.28.12c.13.07.24.14.32.22.08.08.16.2.23.34.07.15.1.32.1.5,0,.37-.12.68-.38.92-.33.32-.8.48-1.42.48-.5,0-.91-.1-1.23-.31-.39-.25-.62-.67-.67-1.24Z"/>
        </g>
      </g>
      <rect id="assistant-office" class="cls-12" x="4.28" y="127.68" width="68.19" height="46.13"/>
      <rect id="gpd-office" class="cls-12" x="4.28" y="76.19" width="68.21" height="49.89"/>
      <polygon id="classroom" class="cls-12" points="4.28 74.65 4.28 4.53 90.17 4.53 90.17 21.65 109.23 21.65 109.23 74.65 4.28 74.65"/>
    </g>
    <g id="Layer_2" data-name="Layer 2">
      <g>
        <rect class="cls-7" x="151.57" y="4.48" width="10.84" height="27.49"/>
        <rect class="cls-7" x="162.5" y="4.48" width="10.84" height="27.49"/>
        <rect class="cls-7" x="197.45" y="4.38" width="10.84" height="27.49"/>
        <rect class="cls-7" x="208.38" y="4.38" width="10.84" height="27.49"/>
        <rect class="cls-7" x="189.89" y="50.23" width="10.84" height="27.49"/>
        <rect class="cls-11" x="218.42" y="50.23" width="10.84" height="27.49"/>
        <rect class="cls-7" x="241.88" y="4.38" width="10.84" height="27.49"/>
        <rect class="cls-7" x="252.81" y="4.38" width="10.84" height="27.49"/>
        <rect class="cls-7" x="259.29" y="50.31" width="10.84" height="27.49"/>
        <rect class="cls-7" x="307.22" y="95.77" width="10.84" height="27.49"/>
        <rect class="cls-7" x="307.22" y="60.46" width="10.84" height="27.49"/>
        <rect class="cls-7" x="339.06" y="62.68" width="10.84" height="27.49"/>
        <rect class="cls-7" x="349.99" y="86.41" width="10.84" height="27.49" transform="translate(255.26 455.56) rotate(-90)"/>
        <rect class="cls-7" x="315.65" y="128.52" width="10.84" height="27.49" transform="translate(178.81 463.34) rotate(-90)"/>
        <rect class="cls-7" x="350.15" y="122.56" width="10.84" height="27.49" transform="translate(219.26 491.87) rotate(-90)"/>
        <rect class="cls-7" x="284.58" y="4.38" width="10.84" height="27.49"/>
        <rect class="cls-7" x="295.51" y="4.38" width="10.84" height="27.49"/>
        <rect class="cls-7" x="327.14" y="4.38" width="10.84" height="27.49"/>
        <rect class="cls-7" x="338.07" y="4.38" width="10.84" height="27.49"/>
        <rect class="cls-7" x="412.01" y="4.38" width="10.84" height="27.49"/>
        <rect class="cls-7" x="422.94" y="4.38" width="10.84" height="27.49"/>
        <rect class="cls-7" x="454.93" y="4.38" width="10.84" height="27.49"/>
        <rect class="cls-7" x="465.86" y="4.38" width="10.84" height="27.49"/>
        <rect class="cls-7" x="497.19" y="4.38" width="10.84" height="27.49"/>
        <rect class="cls-7" x="508.12" y="4.38" width="10.84" height="27.49"/>
        <rect class="cls-7" x="540.34" y="4.48" width="10.84" height="27.49"/>
        <rect class="cls-7" x="581.79" y="36.37" width="10.84" height="27.49" transform="translate(537.1 637.32) rotate(-90)"/>
        <rect class="cls-7" x="581.79" y="25.44" width="10.84" height="27.49" transform="translate(548.02 626.39) rotate(-90)"/>
        <rect class="cls-7" x="581.79" y="-3.79" width="10.84" height="27.49" transform="translate(577.26 597.16) rotate(-90)"/>
        <rect class="cls-7" x="581.76" y="66.11" width="10.84" height="27.49" transform="translate(507.32 667.03) rotate(-90)"/>
        <rect class="cls-7" x="532.5" y="49.22" width="10.84" height="27.49" transform="translate(474.95 600.89) rotate(-90)"/>
        <rect class="cls-7" x="494.76" y="49.34" width="10.84" height="27.49" transform="translate(437.1 563.26) rotate(-90)"/>
        <rect class="cls-7" x="467.27" y="49.34" width="10.84" height="27.49" transform="translate(409.6 535.77) rotate(-90)"/>
        <rect class="cls-7" x="435.64" y="49.34" width="10.84" height="27.49" transform="translate(377.98 504.14) rotate(-90)"/>
        <rect class="cls-7" x="407.95" y="49.34" width="10.84" height="27.49" transform="translate(350.29 476.45) rotate(-90)"/>
        <rect class="cls-7" x="376.13" y="49.34" width="10.84" height="27.49" transform="translate(318.47 444.63) rotate(-90)"/>
        <text class="cls-1" transform="translate(582.28 11.29)"><tspan x="0" y="0">Tony</tspan></text>
        <text class="cls-1" transform="translate(578.65 40.65)"><tspan x="0" y="0">So Jung</tspan></text>
        <text class="cls-1" transform="translate(581.57 51.62)"><tspan x="0" y="0">Luisa</tspan></text>
        <text class="cls-1" transform="translate(580.58 81.7)"><tspan x="0" y="0">Selina</tspan></text>
        <text class="cls-1" transform="translate(529.02 64.45)"><tspan x="0" y="0">Soyoung</tspan></text>
        <text class="cls-1" transform="translate(494.02 64.53)"><tspan x="0" y="0">Zairan</tspan></text>
        <text class="cls-1" transform="translate(465.33 64.53)"><tspan x="0" y="0">Hyomin</tspan></text>
        <text class="cls-1" transform="translate(434.85 64.53)"><tspan x="0" y="0">Ozzie</tspan></text>
        <text class="cls-1" transform="translate(405.78 64.53)"><tspan x="0" y="0">Chihao</tspan></text>
        <text class="cls-1" transform="translate(377.06 64.53)"><tspan x="0" y="0">Lucy</tspan></text>
        <text class="cls-1" transform="translate(347.09 101.53)"><tspan x="0" y="0">Annabel</tspan></text>
        <text class="cls-1" transform="translate(350.73 137.75)"><tspan x="0" y="0">Roye</tspan></text>
        <text class="cls-1" transform="translate(317.69 143.72)"><tspan x="0" y="0">Joy</tspan></text>
        <text class="cls-1" transform="translate(547.33 25.93) rotate(-90)"><tspan x="0" y="0">Brooke</tspan></text>
        <text class="cls-1" transform="translate(514.87 24.32) rotate(-90)"><tspan x="0" y="0">Elliott</tspan></text>
        <text class="cls-1" transform="translate(504.65 20.59) rotate(-90)"><tspan x="0" y="0">Jo</tspan></text>
        <text class="cls-1" transform="translate(473.27 25.97) rotate(-90)"><tspan x="0" y="0">Andrea</tspan></text>
        <text class="cls-1" transform="translate(462.25 22.3) rotate(-90)"><tspan x="0" y="0">Kim</tspan></text>
        <text class="cls-1" transform="translate(429.98 25.63) rotate(-90)"><tspan x="0" y="0">Saachi</tspan></text>
        <text class="cls-1" transform="translate(418.97 23.1) rotate(-90)"><tspan x="0" y="0">Kate</tspan></text>
        <text class="cls-1" transform="translate(345.49 27.86) rotate(-90)"><tspan x="0" y="0">Vishakha</tspan></text>
        <text class="cls-1" transform="translate(345.96 81.72) rotate(-90)"><tspan x="0" y="0">Tonia</tspan></text>
        <text class="cls-1" transform="translate(314.16 79.12) rotate(-90)"><tspan x="0" y="0">Cam</tspan></text>
        <text class="cls-1" transform="translate(314.16 116.61) rotate(-90)"><tspan x="0" y="0">Hamin</tspan></text>
        <text class="cls-1" transform="translate(266.18 70.65) rotate(-90)"><tspan x="0" y="0">Hailey</tspan></text>
        <text class="cls-1" transform="translate(225.71 72.22) rotate(-90)"><tspan x="0" y="0">Shrishti</tspan></text>
        <text class="cls-1" transform="translate(196.7 70.37) rotate(-90)"><tspan x="0" y="0">Jacob</tspan></text>
        <rect class="cls-11" x="229.27" y="50.23" width="10.84" height="27.49"/>
        <text class="cls-1" transform="translate(236.08 68.36) rotate(-90)"><tspan x="0" y="0">Ritu</tspan></text>
        <text class="cls-1" transform="translate(334.47 25.72) rotate(-90)"><tspan x="0" y="0">Tanaka</tspan></text>
        <rect class="cls-7" x="370.31" y="4.38" width="10.84" height="27.49"/>
        <rect class="cls-7" x="381.24" y="4.38" width="10.84" height="27.49"/>
        <text class="cls-1" transform="translate(388.66 25.3) rotate(-90)"><tspan x="0" y="0">Dohee</tspan></text>
        <text class="cls-1" transform="translate(377.64 22.75) rotate(-90)"><tspan x="0" y="0">Tina</tspan></text>
        <text class="cls-1" transform="translate(302.74 23.49) rotate(-90)"><tspan x="0" y="0">Faith</tspan></text>
        <text class="cls-1" transform="translate(292.13 23.51) rotate(-90)"><tspan x="0" y="0">Thea</tspan></text>
        <text class="cls-1" transform="translate(260.37 24.04) rotate(-90)"><tspan x="0" y="0">Kevin</tspan></text>
        <text class="cls-1" transform="translate(249.35 26.8) rotate(-90)"><tspan x="0" y="0">Barbara</tspan></text>
        <text class="cls-1" transform="translate(215.4 27.48) rotate(-90)"><tspan x="0" y="0">Deborah</tspan></text>
        <text class="cls-1" transform="translate(204.39 23.63) rotate(-90)"><tspan x="0" y="0">Avrie</tspan></text>
        <text class="cls-1" transform="translate(169.47 24.06) rotate(-90)"><tspan x="0" y="0">Clara</tspan></text>
        <text class="cls-1" transform="translate(158.45 23.1) rotate(-90)"><tspan x="0" y="0">Josh</tspan></text>
      </g>
    </g>
  </g>
</svg>